<?xml version="1.0" encoding="UTF-8"?>
<svg width="55px" height="38px" viewBox="0 0 55 38" version="1.1" xmlns="http://www.w3.org/2000/svg" xmlns:xlink="http://www.w3.org/1999/xlink">
    <!-- Generator: Sketch 55.2 (78181) - https://sketchapp.com -->
    <title>Group 2</title>
    <desc>Created with Sketch.</desc>
    <g id="Final" stroke="none" stroke-width="1" fill="none" fill-rule="evenodd" stroke-linecap="round" stroke-linejoin="round">
        <g id="03_Studio_App_Views_5" transform="translate(-160.000000, -181.000000)" fill="#111111" fill-rule="nonzero" stroke="#111111" stroke-width="4">
            <g id="Group-2" transform="translate(162.000000, 183.000000)">
                <path d="M0.00796797188,7.75836613 C0.268919051,7.52544463 0.505966214,7.25180921 0.795801191,7.06622948 C6.35246558,3.56009812 12.4280441,1.33598184 19.0315008,0.45163761 C28.1697686,-0.772620518 36.9146177,0.480989507 45.2082804,4.34786514 C46.9891222,5.17823976 48.6643882,6.21313081 50.3765062,7.17322187 C50.6205253,7.310513 50.7938287,7.56047754 51,7.75836613 L51,8.32646735 C50.4492139,9.09813817 49.9522117,9.19566222 49.1325066,8.6758496 C43.9822088,5.41116126 38.3548286,3.27888801 32.2374182,2.40022479 C21.4248804,0.854042641 11.3782638,2.84807792 2.15832438,8.49216354 C2.05872473,8.55181417 1.96510106,8.6143053 1.86848941,8.67490276 C1.0487843,9.1899812 0.553774046,9.09719134 0,8.32552051 L0,7.75741929 L0.00796797188,7.75836613 Z" id="Shape"></path>
                <path d="M27.9626668,10 C32.8352531,10.0230375 38.693408,11.880216 44.0371784,15.6406459 C44.220026,15.768992 44.4048829,15.896241 44.5766792,16.0410417 C44.9966258,16.3931707 45.1141707,16.9306884 44.8841043,17.4012906 C44.6477003,17.8884627 44.1228932,18.1169324 43.6443576,17.9410022 C43.4281938,17.8454067 43.2228837,17.7228277 43.0325215,17.5757096 C37.061845,13.3282228 30.5134909,11.618039 23.4417104,12.3563031 C18.6143336,12.8598146 14.1606892,14.5974228 10.0918285,17.4912425 C9.92405078,17.6108128 9.75928703,17.7391589 9.58246741,17.8411775 C9.04296661,18.1527184 8.41706531,17.9772024 8.13777067,17.4374908 C7.86450397,16.9219126 8.00113732,16.3492917 8.51753101,15.9675444 C10.2901417,14.6546453 12.1818373,13.5445045 14.1626986,12.6546803 C18.1089912,10.8786779 22.2160289,9.99890405 27.9626668,10 Z" id="Shape"></path>
                <path d="M24.5788183,20 C28.7045535,20.0475241 32.1836525,20.9900854 35.3374739,23.0623341 C35.9860696,23.4890609 36.1692833,24.035588 35.8391069,24.5474621 C35.5089305,25.0593363 34.875031,25.1207216 34.239172,24.7355783 C28.0909023,21.0115372 21.9377337,21.0059267 15.7796665,24.7187469 C15.7101041,24.7613206 15.643481,24.8098348 15.5719591,24.8494382 C15.0458323,25.1385431 14.4423051,25.0009212 14.1493593,24.5256802 C13.8564135,24.0504393 14.0014168,23.5157932 14.5226448,23.1643129 C16.8778347,21.5735838 19.5682051,20.5608773 22.3792753,20.2069278 C23.2394974,20.0891077 24.0997196,20.0425737 24.5788183,20 Z" id="Shape"></path>
                <path d="M26.0199776,30.0000999 C25.2109256,29.9920422 24.4767174,30.4722276 24.1598314,31.216669 C23.8429454,31.9611103 24.0058138,32.8231398 24.5724649,33.4006554 C25.1391161,33.978171 25.9979099,34.1573922 26.7482538,33.8547195 C27.4985977,33.5520468 27.9926609,32.827112 28,32.0180679 C28.0044899,30.9164908 27.1214617,30.0165322 26.0199776,30.0000999 L26.0199776,30.0000999 Z" id="Shape"></path>
            </g>
        </g>
    </g>
</svg>